<svg xmlns="http://www.w3.org/2000/svg" xmlns:xlink="http://www.w3.org/1999/xlink" version="1.1" x="0px" y="0px" viewBox="0 0 512 512" id="increase" style="enable-background:new 0 0 57.3 35;" xml:space="preserve">
	 	<g fill="#E95026">
          <path d="M504.5 464.67h-20.78V273.5c0-4.143-3.357-7.5-7.5-7.5s-7.5 3.357-7.5 7.5v191.17h-45.61V198.85h45.609v39.65c0 4.143 3.357 7.5 7.5 7.5s7.5-3.357 7.5-7.5v-47.15c0-4.143-3.357-7.5-7.5-7.5H415.61a7.499 7.499 0 0 0-7.5 7.5v273.32h-29.452V320.65c0-4.143-3.357-7.5-7.5-7.5h-60.609a7.499 7.499 0 0 0-7.5 7.5v144.02h-29.447V260.041c0-4.143-3.357-7.5-7.5-7.5h-60.609a7.499 7.499 0 0 0-7.5 7.5V464.67h-29.447v-73.309c0-4.143-3.357-7.5-7.5-7.5h-60.61a7.499 7.499 0 0 0-7.5 7.5v73.309H47.33v-41.564h16.739c4.143 0 7.5-3.357 7.5-7.5s-3.357-7.5-7.5-7.5H47.33v-97.128h16.739c4.143 0 7.5-3.357 7.5-7.5s-3.357-7.5-7.5-7.5H47.33V198.85h16.739c4.143 0 7.5-3.357 7.5-7.5s-3.357-7.5-7.5-7.5H47.33V86.722h16.739c4.143 0 7.5-3.357 7.5-7.5s-3.357-7.5-7.5-7.5H47.33V7.5c0-4.143-3.357-7.5-7.5-7.5H7.5A7.499 7.499 0 0 0 0 7.5V134c0 4.143 3.357 7.5 7.5 7.5s7.5-3.357 7.5-7.5V15h17.33v457.17c0 4.143 3.357 7.5 7.5 7.5H497V497H23.66c-4.775 0-8.66-3.885-8.66-8.66V169c0-4.143-3.357-7.5-7.5-7.5S0 164.857 0 169v319.34C0 501.386 10.614 512 23.66 512H504.5c4.143 0 7.5-3.357 7.5-7.5v-32.33c0-4.143-3.357-7.5-7.5-7.5zM318.049 328.15h45.609v136.52h-45.609zm-105.057-60.609h45.609V464.67h-45.609zm-105.057 131.32h45.61v65.809h-45.61z"/>
    <path d="M130.75 225.11c5.268 0 10.255-1.698 14.412-4.906l92.515-71.161 91.357 52.704c9.72 5.604 22.157 3.56 29.573-4.858l67.118-76.151a23.588 23.588 0 0 0 22.194 15.442c.33 0 .663-.003.963-.016 13.039-.527 23.218-11.561 22.691-24.594l-2.021-50.472a23.514 23.514 0 0 0-7.598-16.44c-4.646-4.287-10.695-6.494-16.996-6.252l-50.463 2.02c-13.028.526-23.212 11.557-22.701 24.597.466 11.518 9.145 20.811 20.163 22.452l-56.058 63.602-28.313-16.333a7.5 7.5 0 1 0-7.496 12.994l33.63 19.399a7.502 7.502 0 0 0 9.375-1.538l71.33-80.93a7.504 7.504 0 0 0 1.146-8.183c-1.29-2.71-4.065-4.375-7.073-4.271l-12.704.51c-4.785.21-8.819-3.541-9.011-8.3-.188-4.776 3.545-8.819 8.315-9.012l50.463-2.02a8.575 8.575 0 0 1 6.222 2.288 8.609 8.609 0 0 1 2.781 6.018l2.021 50.473c.193 4.771-3.534 8.811-8.339 9.005-.106.005-.217.003-.327.002a8.638 8.638 0 0 1-8.646-8.321l-.41-10.17a7.504 7.504 0 0 0-4.985-6.767 7.505 7.505 0 0 0-8.136 2.109l-78.391 88.941c-2.715 3.082-7.27 3.829-10.824 1.781l-95.7-55.21a7.491 7.491 0 0 0-8.32.552l-96.499 74.226a8.54 8.54 0 0 1-5.259 1.789 8.61 8.61 0 0 1-6.873-3.37c-2.914-3.792-2.206-9.245 1.575-12.155l105.06-80.81a8.639 8.639 0 0 1 9.61-.64l29.66 17.11c3.587 2.071 8.174.84 10.244-2.748s.84-8.175-2.748-10.244l-29.657-17.108c-8.32-4.808-18.626-4.125-26.253 1.74l-105.062 80.81c-10.334 7.952-12.273 22.838-4.319 33.189 4.515 5.865 11.354 9.227 18.764 9.227z"/>
         </g>
</svg>