<svg xmlns="http://www.w3.org/2000/svg" xmlns:xlink="http://www.w3.org/1999/xlink" version="1.1" x="0px" y="0px" viewBox="0 0 480 480" id="cart" style="enable-background:new 0 0 57.3 35;" xml:space="preserve">
	 	<g fill="#E95026">
          <path d="M177.28 368c-30.928 0-56 25.072-56 56s25.072 56 56 56c30.913-.035 55.965-25.087 56-56 0-30.928-25.072-56-56-56zm0 96c-22.091 0-40-17.909-40-40s17.909-40 40-40c22.08.026 39.974 17.92 40 40 0 22.091-17.909 40-40 40zm192-96c-30.928 0-56 25.072-56 56s25.072 56 56 56c30.913-.035 55.965-25.087 56-56 0-30.928-25.072-56-56-56zm0 96c-22.091 0-40-17.909-40-40s17.909-40 40-40c22.08.026 39.974 17.92 40 40 0 22.091-17.909 40-40 40zm101.44-352H82.136L57.064 6.16A8 8 0 0 0 49.28 0h-40a8 8 0 0 0 0 16h33.672l70.544 297.84a8 8 0 0 0 7.784 6.16h304a8 8 0 0 0 0-16H127.608l-11.368-48H440.4a8.04 8.04 0 1 0 0-16H112.48l-11.368-48H455.6a8 8 0 0 0 0-16H97.28l-11.36-48h384.8a8 8 0 0 0 0-16z"/>
         </g>
</svg>