 <svg xmlns="http://www.w3.org/2000/svg" xmlns:xlink="http://www.w3.org/1999/xlink" version="1.1" x="0px" y="0px" id="multilingual" viewBox="0 0 47 43.5" style="enable-background:new 0 0 57.3 35;" xml:space="preserve">
	 	  <title>Multilingual</title>
             <rect x="15.4" fill="#E95026" width="2" height="4.3"/>
             <path fill="#E95026" d="M13.5,23.8c-0.2-0.3-4.2-6.2-3.1-11.4l1.9,0.4c-1,4.3,2.8,9.7,2.8,9.8L13.5,23.8z"/>
             <path fill="#E95026" d="M36.7,34.8c-5.5,0-15.1-1-20.6-7.5l1.5-1.3c7.2,8.4,22.8,6.6,23,6.6l0.3,2C39.5,34.8,38.1,34.9,36.7,34.8z"/>
             <path fill="#E95026" d="M24,38c-2.1-0.7-4-1.7-5.8-3l1.2-1.6c1.6,1.2,3.4,2.1,5.3,2.8L24,38z"/>
             <polygon fill="#E95026" points="45.3,43.5 30.2,18.7 24.1,28.5 22.4,27.4 30.2,14.9 47,42.5 "/>
             <path fill="#E95026" d="M0.2,31.5l-0.2-2c25.6-3,24.3-23.4,24.2-24.3l2-0.2C26.2,5.3,27.8,28.3,0.2,31.5z"/>
             <rect x="0.1" y="3.8" fill="#E95026" width="32.5" height="2"/>
</svg>
