           <svg xmlns="http://www.w3.org/2000/svg" xmlns:xlink="http://www.w3.org/1999/xlink" version="1.1" x="0px" y="0px" id="gateway" viewBox="0 0 39 44.7" style="enable-background:new 0 0 57.3 35;" xml:space="preserve">
	 <title>Multiple Payment Gateways</title>
             <g>
                 <path fill="#E95026" d="M19.6,42.6c-3.3,0-6.6-1.1-9.4-3.3l1.2-1.6c4.8,3.8,11.5,3.8,16.4,0l1.2,1.6C26.3,41.6,22.9,42.6,19.6,42.6   z"/>
             </g>
             <g>
                 <path fill="#E95026" d="M26.8,4.6C19.1-0.8,11.1,3.9,11,4l-1-1.7c0.4-0.2,9.2-5.5,18,0.7L26.8,4.6z"/>
             </g>
             <g id="Rectangle_932_copy_2">
                 <path fill-rule="evenodd" clip-rule="evenodd" fill="#E95026" d="M0,9.8h2v25H0V9.8z M37,9.8h2v25h-2V9.8z M0,9.8h38v2H0V9.8z    M5,14.8h28v3H5V14.8z M5,27.8h12v2H5V27.8z M0,32.8h38v2H0V32.8z"/>
             </g>
</svg>
