<svg xmlns="http://www.w3.org/2000/svg" xmlns:xlink="http://www.w3.org/1999/xlink" version="1.1" x="0px" y="0px" id="revenue" viewBox="0 0 44 40" style="enable-background:new 0 0 57.3 35;" xml:space="preserve">
	 	  <title>Multiple Revenue Channels </title>
             <g id="Rectangle_935_copy">
                 <path fill-rule="evenodd" clip-rule="evenodd" fill="#E95026" d="M0,0h2v40H0V0z M42,0h2v40h-2V0z M0,0h5v2H0V0z M0,38h44v2H0V38z"/>
             </g>
             <g>
                 <polygon fill="#E95026" points="22.7,39.7 21.3,38.3 31.5,28.1 26.6,24.1 33.9,15.6 42,22.8 42,2 18.6,2 27.5,10 16.4,21 21.4,26    7.7,39.7 6.3,38.3 18.6,26 13.6,21 24.5,10 13.4,0 44,0 44,27.2 34.1,18.4 29.4,23.9 34.5,27.9  "/>
             </g>
             <g id="_">
                 <path fill-rule="evenodd" clip-rule="evenodd" fill="#E95026" d="M13.6,9.2c0-3.6-5.6-2.5-5.6-4c0-0.5,0.4-0.9,1.6-0.9   c1,0,1.9,0.3,2.7,0.8L13.2,3c-0.9-0.5-1.8-0.8-2.8-0.8V0.7H8.7v1.5C6.4,2.5,5.3,3.8,5.3,5.3c0,3.6,5.6,2.5,5.6,4.1   c0,0.5-0.4,0.8-1.6,0.8c-1.1,0-2.3-0.3-3.2-1l-0.9,2c1.1,0.6,2.3,1,3.6,1.1v1.5h1.7v-1.5C12.6,12,13.6,10.7,13.6,9.2z"/>
             </g>
</svg>