<svg xmlns="http://www.w3.org/2000/svg" width="15" height="15" viewBox="0 0 15 15" fill="none">
<path d="M7.5 1.40625C4.125 1.40625 1.40625 4.125 1.40625 7.5C1.40625 10.875 4.125 13.5938 7.5 13.5938C10.875 13.5938 13.5938 10.875 13.5938 7.5C13.5938 6.84469 13.5056 6.19078 13.2712 5.58094L12.51 6.32812C12.6038 6.70312 12.6567 7.07906 12.6567 7.5C12.6567 10.3603 10.3608 12.6562 7.50047 12.6562C4.64016 12.6562 2.34375 10.3603 2.34375 7.5C2.34375 4.63969 4.63969 2.34375 7.5 2.34375C8.90625 2.34375 10.1695 2.90391 11.0597 3.79406L11.7188 3.135C10.6406 2.05594 9.14062 1.40625 7.5 1.40625Z" fill="#0BB07E"/>
<path fill-rule="evenodd" clip-rule="evenodd" d="M12.401 3.34846C12.5048 3.28593 12.6288 3.26604 12.7469 3.29296C12.8651 3.31988 12.9682 3.39151 13.0347 3.49283L13.4988 4.20064C13.5594 4.29315 13.5853 4.40412 13.572 4.51392C13.5588 4.62372 13.5071 4.72528 13.4261 4.80064L13.4247 4.80252L13.4181 4.80861L13.3914 4.83346L13.286 4.93424C12.7024 5.5003 12.1365 6.08433 11.5891 6.68549C10.5592 7.81799 9.33626 9.30018 8.51314 10.7383C8.28345 11.1396 7.72236 11.2258 7.38954 10.8794L4.3497 7.72096C4.30614 7.67568 4.27212 7.6221 4.24968 7.56341C4.22723 7.50472 4.21682 7.44212 4.21905 7.37933C4.22128 7.31654 4.23611 7.25483 4.26266 7.19788C4.28921 7.14094 4.32694 7.08991 4.37361 7.04783L5.29236 6.21908C5.3731 6.14629 5.47662 6.10382 5.58522 6.09895C5.69382 6.09407 5.80074 6.1271 5.88767 6.19236L7.43876 7.35533C9.86126 4.96611 11.2356 4.04924 12.401 3.34846ZM12.4994 4.38721C11.426 5.05846 10.0863 6.03205 7.81283 8.30502C7.73305 8.3848 7.62717 8.43313 7.51463 8.44114C7.40209 8.44915 7.29044 8.41629 7.20017 8.34861L5.63361 7.17393L5.36126 7.41955L7.85361 10.0099C8.71892 8.5708 9.91001 7.1383 10.8958 6.05455C11.4149 5.48429 11.9503 4.92906 12.5013 4.38955L12.4994 4.38721Z" fill="#0BB07E"/>
</svg>