<svg xmlns="http://www.w3.org/2000/svg" xmlns:xlink="http://www.w3.org/1999/xlink" version="1.1" x="0px" y="0px" id="custom-web" viewBox="0 0 54.6 38" style="enable-background:new 0 0 57.3 35;" xml:space="preserve">
	 	 <title>Custom Web and Mobile Experience</title>
             <g style="opacity:0">
                 <rect x="20.1" y="0.5" width="34" height="21" style="fill:#174665"/>
             </g>
             <path d="M54.6,22h-35V0h35Zm-34-1h33V1h-33Z" style="fill:#E95026"/>
             <g id="Rectangle_800_copy" data-name="Rectangle 800 copy">
                 <g style="opacity:0">
                     <rect x="20.1" y="21.5" width="34" height="7" style="fill:#174665"/>
                 </g>
                 <path d="M54.6,29h-35V21h35Zm-34-1h33V22h-33Z" style="fill:#E95026"/>
             </g>
             <g id="Rectangle_800_copy_2" data-name="Rectangle 800 copy 2">
                 <g style="opacity:0">
                     <rect x="33.1" y="28.5" width="8" height="5" style="fill:#fff"/>
                 </g>
                 <path d="M41.6,34h-9V28h9Zm-8-1h7V29h-7Z" style="fill:#E95026"/>
             </g>
             <g id="Rectangle_800_copy_3" data-name="Rectangle 800 copy 3">
                 <rect x="28.1" y="33.9" width="18" height="3.6" style="fill:#fff"/>
                 <path d="M46.6,38h-19V33.4h19Zm-18-1h17V34.4h-17Z" style="fill:#E95026"/>
             </g>
             <g id="Rectangle_800_copy_7" data-name="Rectangle 800 copy 7">
                 <rect x="7.1" y="12.5" width="19" height="25" style="fill:#fff"/>
                 <path d="M26.6,38H6.6V12h20Zm-19-1h18V13H7.6Z" style="fill:#E95026"/>
             </g>
             <g id="Rectangle_800_copy_8" data-name="Rectangle 800 copy 8">
                 <rect x="0.5" y="19" width="11.6" height="18.5" style="fill:#fff"/>
                 <path d="M12.6,38H0V18.5H12.6ZM1,37H11.6V19.5H1Z" style="fill:#E95026"/>
             </g>
</svg>