<?xml version="1.0" encoding="UTF-8"?>
<svg id="Layer_1" data-name="Layer 1" xmlns="http://www.w3.org/2000/svg" viewBox="0 0 162.88 49.92">
  <path d="M44.58.15c-2.5-.7-6.1,1.1-7.7,4-1.1,2.2-2.1,4.1-2.8,5.6-1.4,3-2.3,4.8-3.6,5.7-1.7,1.2-4,.5-7.3-.6L5.08,9.25c-1.7-.5-3.4.5-4,2.1s.5,3.4,2.1,4l7.9,2.4,8.4,2.6,1.8.6h0c1.9.9,2.9,3,2.3,5-.5,1.5-1.7,2.6-3.2,2.9,1,1,1.5,2.6,1,4.1-.6,2.1-2.7,3.3-4.8,2.9h0l-.4-.1h-.1l-1.1-.3-8.6-2.6-3.5-1.1c-1.2-.3-2.5.3-2.8,1.5-.3,1.2.3,2.5,1.5,2.8l16.8,4.9c6.7,2.1,11.4-2,13.1-7,1.1-3.1,8.9-24.3,11.5-28.4.8-1.2,1.5-1.7,2.1-2.2.5-.4.9-.6,1-1.3.2-.2.1-1.5-1.5-1.9M7.48,43.35c-.6,1.8-2.4,2.8-4.2,2.2s-2.8-2.4-2.2-4.2c.5-1.8,2.4-2.8,4.2-2.2,1.7.5,2.7,2.4,2.2,4.2M21.38,47.55c-.4,1.3-1.5,2.2-2.8,2.3-.5.1-1,.1-1.4-.1-1.8-.5-2.8-2.4-2.2-4.2.5-1.8,2.4-2.8,4.2-2.2,1.7.6,2.7,2.5,2.2,4.2M17.28,34.25c-.3,0-.5-.1-.8-.1l-1.3-.4-.5-.1-8.5-2.6c-.7-.2-1.3-.7-1.7-1.4-.3-.6-.4-1.4-.2-2.1.3-1.1,1.4-1.9,2.6-1.9.3,0,.6.1.8.1l9.2,2.8h0l1,.3h0c1.4.5,2.3,2,1.8,3.4-.1,1.2-1.2,2-2.4,2M19.28,27.35c-.3,0-.5-.1-.8-.1l-1.2-.4-.4-.1-8.5-2.6c-1.4-.5-2.2-1.9-1.8-3.4.3-1.1,1.4-1.9,2.6-1.9.3,0,.5.1.8.1l9.1,2.8h0l1,.3c1.4.5,2.2,1.9,1.8,3.4-.3,1.2-1.4,1.9-2.6,1.9" fill="#ff3a59"/>
  <path d="M52.08,15.75l.9,13.8c.1,1.4,1.3,1.5,1.7,1.5l4.3-10.6c.4-1.1.8-2.5,1-4.8h6c.5,2.6-.3,5.2-1.1,7l-5.9,13.6c-4.4,10-10.4,11-13.1,11.5v-4.5c3.6-1.8,5.3-4.1,6.8-7-3.7,0-5.5-2-5.8-5.6l-1.3-15c-.1.1,6.5.1,6.5.1ZM77.48,15.45c7,0,9.1,3.7,7.8,11.6-1.2,7.6-3.8,9.5-11,9.5s-9.1-3.6-8-10.9c1.3-8.5,4.2-10.2,11.2-10.2M74.98,31.55c2.6,0,3.2-.3,4-5.3s.5-6-2.2-6-3.3.9-4.1,6c-.8,4.8-.2,5.3,2.3,5.3M86.58,31.45c.1-.6.5-1,1.1-1h3.9c.6,0,.8.4.7,1l-.6,4c-.1.6-.5.9-1,.9h-3.9c-.5,0-.9-.3-.8-.9l.6-4ZM90.08,8.05h6.2l-4,20.7h-5l2.8-20.7ZM116.08,15.75h-6.7c-1.1,3.5-4,6-6.8,7.2l2.3-14.8h-6.4l-4.5,28.3h6.4l1.5-9.1,1.5-.1,4.5,9.1h6.9l-5.7-11.2c2.3-1.3,5.5-4,7-9.4M125.48,15.35c3-.1,7.6.5,9.5,2.4l-2.7,18.5h-4.9l-1-2c-1,1.5-3.6,2.3-5.8,2.3-3.8,0-6.8-3.8-5.2-12,1.6-8.6,6.3-9.1,10.1-9.2M123.18,31.25c1.9,0,3-.7,3.7-1.9l1.3-8.8c-.8-.3-2.2-.5-3.2-.3-1.5.3-2.9.9-3.5,5.2-.5,3.4-.5,5.8,1.7,5.8M137.58,15.75h5.5l.4,2.6c1.3-1.4,3.4-2.8,5.7-2.8.8,0,1.5,0,2.1.2l-1,6.1c-.6-.1-1.8-.1-3-.1-1.9,0-3.6.2-4.7,2.3l-1.9,12.2h-6.4l3.3-20.5ZM153.18,9.95h6.5l-.9,5.7h4.1l-.7,4.6h-4.2l-1.2,7.5c-.5,3,.1,3.5,1,4,0,0,1.8.8,2.1.8l-.6,3.8h-4.1c-3.3,0-5.7-2-4.9-7.4l2.9-19ZM69.48,44.35c0-.7-.1-1.7-.1-2.5h0c-.2.8-.5,1.7-.7,2.4l-.7,2.4h-1l-.6-2.3c-.2-.7-.4-1.6-.6-2.4h0c0,.9-.1,1.8-.1,2.5l-.1,2.3h-1.3l.4-6.1h1.8l.6,2.1c.2.7.4,1.5.5,2.2h.1c.2-.7.4-1.5.6-2.2l.6-2.1h1.8l.3,6.1h-1.4l-.1-2.4ZM73.38,40.55v3.6c0,1.1.4,1.6,1.1,1.6s1.1-.5,1.1-1.6v-3.6h1.4v3.4c0,1.9-1,2.8-2.6,2.8-1.5,0-2.5-.9-2.5-2.8v-3.4h1.5ZM78.28,40.55h1.4v5h2.5v1.1h-3.8l-.1-6.1h0ZM83.18,41.75h-1.7v-1.1h4.8v1.1h-1.7v5h-1.4v-5h0ZM88.38,40.55v6.1h-1.4v-6.1h1.4ZM92.58,46.75l-1.9-6.1h1.5l.7,2.6c.2.7.4,1.4.6,2.2h0c.2-.7.3-1.5.6-2.2l.8-2.6h1.5l-2.1,6.1h-1.7ZM100.58,44.15h-2.3v1.5h2.5v1.1h-3.9v-6.1h3.8v1.1h-2.4v1.3h2.3v1.1h0ZM101.78,46.75v-6.1h1.6l1.3,2.2c.3.6.7,1.4,1,2.1h0c-.1-.8-.1-1.7-.1-2.6v-1.8h1.3v6.1h-1.5l-1.3-2.3c-.3-.6-.8-1.4-1.1-2.2h-.1c.1.8.1,1.7.1,2.7v1.8l-1.2.1h0ZM108.08,40.65c.5-.1,1.2-.1,1.9-.1,1.2,0,1.9.2,2.5.6.6.5,1,1.3,1,2.3,0,1.2-.4,2-1,2.5s-1.7.8-2.9.8c-.7,0-1.3-.1-1.6-.1l.1-6h0ZM109.48,45.65h.5c1.3,0,2.1-.7,2.1-2.2,0-1.3-.7-1.9-1.9-1.9-.3,0-.5,0-.6.1l-.1,4h0ZM120.08,43.55c0,2-1.2,3.3-3,3.3s-2.9-1.4-2.9-3.2,1.2-3.2,3-3.2c1.9,0,2.9,1.4,2.9,3.1ZM115.68,43.65c0,1.2.6,2.1,1.5,2.1s1.5-.9,1.5-2.1c0-1.1-.5-2.1-1.5-2.1-1,0-1.5.9-1.5,2.1ZM121.08,40.65c.5-.1,1.1-.1,1.8-.1.9,0,1.5.1,2,.5.4.3.6.7.6,1.3,0,.8-.6,1.3-1.1,1.5h0c.5.2.7.6.8,1.1.2.7.4,1.5.5,1.7h-1.4c-.1-.2-.2-.7-.4-1.4-.2-.8-.5-1-1-1h-.4v2.4h-1.4v-6h0ZM122.38,43.25h.6c.7,0,1.1-.3,1.1-.9s-.4-.9-1-.9c-.3,0-.5,0-.6.1-.1.1-.1,1.7-.1,1.7ZM128.28,45.25c.3.2,1,.4,1.5.4.6,0,1-.3,1-.7s-.3-.6-1-.9c-1-.3-1.7-.9-1.7-1.8,0-1,.9-1.8,2.3-1.8.7,0,1.2.1,1.5.3l-.3,1.1c-.2-.1-.7-.3-1.3-.3s-.9.3-.9.6c0,.4.3.6,1.1.9,1.1.4,1.6,1,1.6,1.8,0,1-.8,1.9-2.5,1.9-.7,0-1.4-.2-1.7-.4l.4-1.1ZM134.58,46.75v-2.5l-1.9-3.6h1.6l.6,1.5c.2.5.3.8.5,1.2h0c.1-.4.3-.7.5-1.2l.6-1.5h1.5l-2,3.6v2.6l-1.4-.1h0ZM138.48,45.25c.3.2,1,.4,1.5.4.6,0,1-.3,1-.7s-.3-.6-1-.9c-1-.3-1.7-.9-1.7-1.8,0-1,.9-1.8,2.3-1.8.7,0,1.2.1,1.5.3l-.3,1.1c-.2-.1-.7-.3-1.3-.3s-.9.3-.9.6c0,.4.3.6,1.1.9,1.1.4,1.6,1,1.6,1.8,0,1-.8,1.9-2.5,1.9-.7,0-1.4-.2-1.7-.4l.4-1.1ZM144.58,41.75h-1.6v-1.1h4.8v1.1h-1.8v5h-1.4v-5h0ZM152.08,44.15h-2.3v1.5h2.5v1.1h-3.9v-6.1h3.8v1.1h-2.4v1.3h2.3v1.1h0ZM158.48,44.35c0-.7-.1-1.7-.1-2.5h0c-.2.8-.5,1.7-.7,2.4l-.7,2.4h-1l-.6-2.3c-.2-.7-.4-1.6-.6-2.4h0c0,.9-.1,1.8-.1,2.5l-.1,2.3h-1.3l.4-6.1h1.8l.6,2.1c.2.7.4,1.5.5,2.2h.1c.2-.7.4-1.5.6-2.2l.6-2.1h1.8l.3,6.1h-1.4l-.1-2.4Z" fill="#474747"/>
</svg>