<?xml version="1.0" encoding="UTF-8"?>
<svg version="1.1" xmlns="http://www.w3.org/2000/svg" width="1791" height="295">
<path d="M0 0 C1.04768555 0.00491455 2.09537109 0.0098291 3.17480469 0.01489258 C20.94655372 0.28187956 38.39910619 4.92057152 52.05859375 16.8984375 C53.25 18.3125 53.25 18.3125 53.25 20.3125 C54.24 20.6425 55.23 20.9725 56.25 21.3125 C57.87569389 23.57861875 59.36098466 25.81487624 60.8125 28.1875 C61.60546497 29.45573153 62.39843359 30.72396078 63.19140625 31.9921875 C63.87074219 33.08789062 64.55007813 34.18359375 65.25 35.3125 C65.91 36.3025 66.57 37.2925 67.25 38.3125 C67.65202637 37.92505615 68.05405273 37.5376123 68.46826172 37.13842773 C93.51471696 13.1031204 119.87025641 -0.27106275 155.10546875 0.09765625 C172.12883537 0.51782519 187.29777557 5.48305307 201.25 15.3125 C202.39275391 16.09753906 202.39275391 16.09753906 203.55859375 16.8984375 C204.39583984 17.59839844 204.39583984 17.59839844 205.25 18.3125 C205.25 18.9725 205.25 19.6325 205.25 20.3125 C205.91 20.3125 206.57 20.3125 207.25 20.3125 C221.84527458 37.25977247 226.64423 58.14148602 225.04947281 80.06979942 C224.76283797 82.80490864 224.42840211 85.52841851 224.06689453 88.25463867 C223.93466555 89.27741755 223.80243656 90.30019644 223.66620064 91.35396862 C221.91922887 104.38540899 219.54022965 117.30695087 217.1796875 130.23828125 C216.69194625 132.93185013 216.20602996 135.62574752 215.72000122 138.31962585 C214.71072642 143.90796667 213.69668015 149.49542314 212.67919922 155.08227539 C211.37382027 162.25008809 210.076711 169.41937266 208.78202629 176.58912373 C207.66217564 182.79026869 206.53856557 188.99073154 205.41436625 195.19108939 C205.05531548 197.17231607 204.6967921 199.15363764 204.33834457 201.13497353 C203.67303622 204.80826415 203.00473027 208.48099587 202.33544922 212.15356445 C202.03933746 213.79201324 202.03933746 213.79201324 201.73724365 215.46356201 C201.55509308 216.45952896 201.3729425 217.45549591 201.18527222 218.48164368 C201.0278549 219.3473766 200.87043758 220.21310953 200.70825005 221.10507679 C200.25 223.3125 200.25 223.3125 199.25 226.3125 C169.88 226.3125 140.51 226.3125 110.25 226.3125 C110.88884412 218.64637051 111.61203589 211.37358039 113 203.86572266 C113.174104 202.89825104 113.34820801 201.93077942 113.52758789 200.93399048 C114.09641363 197.78052675 114.67314432 194.62856626 115.25 191.4765625 C115.65024473 189.26615383 116.04997574 187.05565208 116.44921875 184.84506226 C117.49601785 179.05648508 118.54949287 173.26914315 119.60449219 167.48205566 C120.67769156 161.58899778 121.7449557 155.69486573 122.8125 149.80078125 C124.01233232 143.17717781 125.21271527 136.55368023 126.41796875 129.93106079 C126.60093506 128.92512878 126.78390137 127.91919678 126.97241211 126.88278198 C127.31269913 125.01240407 127.65333092 123.14208883 127.99438477 121.27185059 C131.59718737 103.43324952 131.59718737 103.43324952 127.25 86.3125 C121.52335512 80.31949954 115.6803458 78.24688101 107.58544922 77.90771484 C97.74951294 77.75341662 88.70963662 79.1764083 80.8125 85.5 C71.37762608 94.69998079 69.19324202 107.58793856 66.99755859 120.06445312 C66.79390182 121.19411499 66.59024506 122.32377686 66.38041687 123.4876709 C65.71444304 127.18876562 65.05651415 130.89124377 64.3984375 134.59375 C63.93489003 137.17552183 63.47073905 139.75718536 63.00601196 142.33874512 C61.91210641 148.41971227 60.82356689 154.50162501 59.73745024 160.58398771 C57.67324788 172.14358587 55.60123877 183.70177664 53.52388382 195.25901794 C52.84241792 199.05762702 52.16508775 202.85695758 51.48812866 206.65637207 C51.07344904 208.96950857 50.65863126 211.2826203 50.24365234 213.59570312 C49.9615667 215.18838013 49.9615667 215.18838013 49.67378235 216.81323242 C49.41317772 218.25974182 49.41317772 218.25974182 49.14730835 219.73547363 C48.99726538 220.57606575 48.8472224 221.41665787 48.69263268 222.28272247 C48.25 224.3125 48.25 224.3125 47.25 226.3125 C17.88 226.3125 -11.49 226.3125 -41.75 226.3125 C-41.07717036 218.91137399 -40.25662077 211.8486732 -38.89233398 204.5871582 C-38.70687012 203.57737411 -38.52140625 202.56759003 -38.33032227 201.52720642 C-37.93075109 199.35368046 -37.52910009 197.18053599 -37.12554741 195.00774574 C-36.48525346 191.55482263 -35.85271574 188.10056046 -35.22242737 184.64579773 C-33.4308771 174.82949222 -31.63147924 165.01467707 -29.81274414 155.20336914 C-28.69717437 149.18226332 -27.5955676 143.15873794 -26.50251961 137.13350487 C-26.08630388 134.85428404 -25.66496798 132.57599142 -25.23815727 130.29873085 C-20.4090877 109.29515386 -20.4090877 109.29515386 -23.4375 88.5625 C-27.41387832 82.97407641 -31.97880231 79.71309 -38.75 78.3125 C-50.22099073 77.30392772 -60.77970482 77.98285889 -70.0625 85.5 C-84.39889651 99.45526531 -85.16114036 121.32749227 -88.48046875 140.12109375 C-88.92016725 142.58458381 -89.36047 145.04796609 -89.80134583 147.51124573 C-91.06858514 154.59850532 -92.32842406 161.6870653 -93.58693695 168.77587891 C-95.30801242 178.46774858 -97.03453042 188.1586386 -98.76723671 197.84843636 C-99.41158727 201.46032257 -100.05093888 205.07307026 -100.68998718 208.68589783 C-101.08111664 210.87844575 -101.47244747 213.07095777 -101.86401367 215.26342773 C-102.12971664 216.77722771 -102.12971664 216.77722771 -102.40078735 218.3216095 C-102.56466446 219.2338327 -102.72854156 220.14605591 -102.89738464 221.08592224 C-103.03875445 221.88277152 -103.18012426 222.6796208 -103.32577801 223.50061703 C-103.75 225.3125 -103.75 225.3125 -104.75 226.3125 C-107.51938966 226.40767803 -110.26377159 226.43804265 -113.03344727 226.42602539 C-114.33576797 226.42624443 -114.33576797 226.42624443 -115.66439819 226.4264679 C-118.54842586 226.42576846 -121.4323898 226.41797463 -124.31640625 226.41015625 C-126.31037867 226.40829218 -128.30435155 226.40686823 -130.29832458 226.40586853 C-135.55745702 226.40204248 -140.81656203 226.39221145 -146.07568359 226.38116455 C-151.43782175 226.3709523 -156.79996431 226.36637131 -162.16210938 226.36132812 C-172.69141833 226.35058926 -183.22070689 226.3335118 -193.75 226.3125 C-193.32219848 213.51866901 -190.70562342 201.04114575 -188.40234375 188.484375 C-187.95316561 186.00805679 -187.50459188 183.53162889 -187.05657959 181.05509949 C-186.10266826 175.78903397 -185.14492317 170.52368952 -184.18344116 165.25900269 C-182.6805955 157.02993966 -181.18589924 148.7994084 -179.69262695 140.56860352 C-179.18985019 137.79779742 -178.68701791 135.0270014 -178.18415833 132.25621033 C-178.05955905 131.56962343 -177.93495978 130.88303654 -177.80658478 130.17564398 C-176.92259299 125.30522087 -176.03724815 120.4350448 -175.15141296 115.56495667 C-171.99495009 98.20841137 -168.86632358 80.84707668 -165.765625 63.48046875 C-165.38709006 61.36232793 -165.0085151 59.24419426 -164.62989807 57.12606812 C-162.51558641 45.2956872 -162.51558641 45.2956872 -160.40866089 33.46398926 C-159.61339717 28.9902103 -158.81458871 24.51707918 -158.01300812 20.04442787 C-157.72362038 18.42559525 -157.43564993 16.80650854 -157.14919281 15.18715477 C-156.76409639 13.01074836 -156.37425533 10.83524616 -155.9831543 8.65991211 C-155.76749313 7.44903427 -155.55183197 6.23815643 -155.32963562 4.99058533 C-154.75 2.3125 -154.75 2.3125 -153.75 1.3125 C-150.98061034 1.21732197 -148.23622841 1.18695735 -145.46655273 1.19897461 C-144.16423203 1.19875557 -144.16423203 1.19875557 -142.83560181 1.1985321 C-139.95157414 1.19923154 -137.0676102 1.20702537 -134.18359375 1.21484375 C-132.18962133 1.21670782 -130.19564845 1.21813177 -128.20167542 1.21913147 C-122.94254298 1.22295752 -117.68343797 1.23278855 -112.42431641 1.24383545 C-107.06217825 1.2540477 -101.70003569 1.25862869 -96.33789062 1.26367188 C-85.80858167 1.27441074 -75.27929311 1.2914882 -64.75 1.3125 C-64.89893876 3.04615468 -65.0503941 4.77959325 -65.20288086 6.51293945 C-65.28694687 7.47827103 -65.37101288 8.4436026 -65.45762634 9.43818665 C-65.87084119 13.50048471 -66.56063616 17.48886039 -67.3125 21.5 C-67.45107422 22.26119141 -67.58964844 23.02238281 -67.73242188 23.80664062 C-68.06730401 25.64271852 -68.40799808 27.47773496 -68.75 29.3125 C-68.23179687 28.59835938 -67.71359375 27.88421875 -67.1796875 27.1484375 C-64.36537133 23.86356042 -61.36190554 21.46606603 -57.875 18.9375 C-57.21516113 18.45853271 -56.55532227 17.97956543 -55.87548828 17.48608398 C-39.23495599 5.69325267 -20.34340803 -0.11382543 0 0 Z " fill="#F36733" transform="translate(832.75,67.6875)"/>
<path d="M0 0 C6.20943109 4.66200144 11.47937306 10.00016526 15 17 C15 17.99 15 18.98 15 20 C15.66 20 16.32 20 17 20 C17.03738281 19.3915625 17.07476563 18.783125 17.11328125 18.15625 C17.56359036 12.15212858 18.39881517 6.28864764 19.5 0.375 C19.63059814 -0.33591797 19.76119629 -1.04683594 19.89575195 -1.77929688 C20.87273716 -6.87273716 20.87273716 -6.87273716 22 -8 C24.76938966 -8.09517803 27.51377159 -8.12554265 30.28344727 -8.11352539 C31.58576797 -8.11374443 31.58576797 -8.11374443 32.91439819 -8.1139679 C35.79842586 -8.11326846 38.6823898 -8.10547463 41.56640625 -8.09765625 C43.56037867 -8.09579218 45.55435155 -8.09436823 47.54832458 -8.09336853 C52.80745702 -8.08954248 58.06656203 -8.07971145 63.32568359 -8.06866455 C68.68782175 -8.0584523 74.04996431 -8.05387131 79.41210938 -8.04882812 C89.94141833 -8.03808926 100.47070689 -8.0210118 111 -8 C110.26403292 1.305725 108.59829427 10.40811692 106.93652344 19.58154297 C106.61903857 21.35031295 106.30189397 23.11914403 105.98506165 24.88803101 C105.12667921 29.67491294 104.26356896 34.4609315 103.39960384 39.24680853 C102.49027414 44.28872196 101.58537438 49.33143037 100.67999268 54.37405396 C98.96075673 63.94572916 97.23762784 73.51669917 95.51306462 83.08741581 C93.57009413 93.87119408 91.63121581 104.65570666 89.69280577 115.44030547 C87.32078883 128.63730578 84.94830405 141.83422112 82.57220459 155.03048706 C82.40433779 155.96291335 82.236471 156.89533965 82.06351733 157.85602129 C81.2533754 162.35592848 80.44295455 166.85578507 79.63198471 171.35554314 C78.22675975 179.15610955 76.82713635 186.95755337 75.44787598 194.76275635 C75.21226404 196.09345195 74.97664445 197.4241462 74.74101639 198.75483894 C74.31688032 201.1540847 73.89461533 203.55366234 73.47465134 205.95364189 C73.20093641 207.50160548 73.20093641 207.50160548 72.92169189 209.08084106 C72.76628559 209.96683046 72.61087929 210.85281986 72.4507637 211.76565742 C72 214 72 214 71 217 C41.63 217 12.26 217 -18 217 C-16.875 203.5 -16.875 203.5 -15.9375 197.25 C-15.76089844 196.05890625 -15.58429688 194.8678125 -15.40234375 193.640625 C-15.26957031 192.76921875 -15.13679688 191.8978125 -15 191 C-15.59425781 191.64066406 -16.18851563 192.28132812 -16.80078125 192.94140625 C-30.80711891 207.55766219 -49.60711352 217.96986972 -70.078125 218.46875 C-72.60864697 218.49887378 -75.13776586 218.50770585 -77.66845703 218.50097656 C-80.23194768 218.50000683 -82.79240987 218.54168749 -85.35546875 218.5859375 C-102.30225024 218.70964634 -117.79924173 214.19127516 -131 203 C-131 202.34 -131 201.68 -131 201 C-131.58265625 200.75507813 -132.1653125 200.51015625 -132.765625 200.2578125 C-143.48360011 194.22426707 -149.72560382 177.47694906 -153.375 166.3125 C-156.28996376 155.60586708 -157.36842132 145.01154279 -157.3125 133.9375 C-157.30758545 132.76574219 -157.3026709 131.59398437 -157.29760742 130.38671875 C-156.74631489 88.95213783 -140.33996796 46.30484249 -110.4453125 17.19140625 C-82.59573366 -7.76644316 -33.54781274 -23.05746495 0 0 Z M-51.6875 79.125 C-61.08212464 89.04275919 -64.69169523 103.47942268 -64.35546875 116.81640625 C-63.57277433 123.82625191 -61.22785792 131.07087681 -56 136 C-48.39373451 141.21998612 -40.89806202 142.65258641 -31.76171875 141.53125 C-23.31776007 139.90695243 -16.15322892 136.03432595 -10 130 C-10 129.34 -10 128.68 -10 128 C-9.34 128 -8.68 128 -8 128 C-1.78073642 117.46871368 2.31884088 108.0716132 2.4375 95.75 C2.44765137 95.00548584 2.45780273 94.26097168 2.46826172 93.49389648 C2.33531081 85.06836658 -0.35559114 78.80814009 -6.1328125 72.6953125 C-19.75478337 60.3272469 -39.9655573 68.60859627 -51.6875 79.125 Z " fill="#F36633" transform="translate(1232,77)"/>
<path d="M0 0 C0.73845154 -0.00794586 1.47690308 -0.01589172 2.23773193 -0.02407837 C26.87105967 -0.22745902 52.50132811 5.74904329 71.375 22.375 C72.17035156 23.01695313 72.96570313 23.65890625 73.78515625 24.3203125 C90.20232535 38.07318058 98.49761331 56.73111154 102.375 77.375 C102.52710938 78.18066406 102.67921875 78.98632812 102.8359375 79.81640625 C103.15450894 82.01627121 103.29230255 84.15250595 103.375 86.375 C103.4265625 87.62925781 103.478125 88.88351563 103.53125 90.17578125 C104.0181703 108.10495451 101.21743389 125.44077476 95.375 142.375 C94.74658203 144.25058594 94.74658203 144.25058594 94.10546875 146.1640625 C82.44000575 178.10120905 55.71616155 203.16419688 25.375 217.375 C14.75177852 221.83548908 3.70472654 225.26487901 -7.625 227.375 C-8.45563965 227.54555908 -9.2862793 227.71611816 -10.14208984 227.8918457 C-14.79587404 228.53742533 -19.38459058 228.57725987 -24.078125 228.61328125 C-25.09235535 228.621353 -26.10658569 228.62942474 -27.15155029 228.63774109 C-29.29990959 228.65154588 -31.44829049 228.66228408 -33.59667969 228.67016602 C-35.76080911 228.68160876 -37.92491206 228.70193589 -40.08886719 228.73168945 C-69.61527016 229.13687392 -94.87430622 222.59214679 -116.546875 201.54296875 C-134.31784421 183.63504694 -141.65498271 160.11548147 -141.9375 135.3125 C-141.80283838 102.85904982 -131.14630491 71.82437361 -109.625 47.375 C-108.86703125 46.47265625 -108.1090625 45.5703125 -107.328125 44.640625 C-88.96709744 23.39943625 -62.63778172 9.92817131 -35.625 3.375 C-34.35914063 3.0553125 -33.09328125 2.735625 -31.7890625 2.40625 C-21.31297512 0.08095626 -10.68070959 0.06029138 0 0 Z M-34.25 85.625 C-44.19328279 97.13827481 -48.7702499 110.0501914 -48.9375 125.125 C-48.96650391 125.9809375 -48.99550781 126.836875 -49.02539062 127.71875 C-49.09413385 134.69883166 -47.74224058 140.99984721 -42.8840332 146.26000977 C-37.71597999 150.98927302 -32.63705172 152.92260957 -25.625 153.375 C-15.65876817 152.69548419 -8.76914602 148.92547066 -1.9375 141.75 C9.08296816 128.30042632 11.70345413 112.21879582 10.375 95.375 C9.4465531 88.60279908 6.68932912 84.95294537 1.35546875 80.74609375 C-10.50263224 72.53663922 -24.22100095 77.0287151 -34.25 85.625 Z " fill="#F36633" transform="translate(530.625,66.625)"/>
<path d="M0 0 C2.2532645 0.0031504 4.5051982 -0.02035785 6.75830078 -0.0456543 C30.72859369 -0.1491493 55.71074035 6.18689481 74.02001953 22.31567383 C74.81537109 22.95762695 75.61072266 23.59958008 76.43017578 24.26098633 C93.58692499 38.63340993 102.97867427 59.40291246 105.70361328 81.37426758 C108.57401852 117.13030318 99.69680296 152.81037013 76.40673828 180.68286133 C68.08866448 189.85860886 59.65611445 198.83256977 49.02001953 205.31567383 C47.93849609 206.01821289 46.85697266 206.72075195 45.74267578 207.44458008 C32.08490298 216.15989405 16.87005234 222.80887577 1.02001953 226.31567383 C0.27816406 226.4908252 -0.46369141 226.66597656 -1.22802734 226.84643555 C-11.18754516 228.87636636 -21.28445861 228.68783023 -31.40429688 228.6862793 C-34.57721336 228.6906357 -37.74871664 228.72699967 -40.92138672 228.76489258 C-69.10528656 228.92226 -93.48258329 221.39185891 -114.09326172 201.35473633 C-129.46384155 185.64990167 -138.18890972 164.22489406 -138.97998047 142.31567383 C-139.03992188 140.79006836 -139.03992188 140.79006836 -139.10107422 139.23364258 C-139.79225487 103.65816763 -127.75676095 68.33129333 -102.97998047 42.31567383 C-102.31998047 42.31567383 -101.65998047 42.31567383 -100.97998047 42.31567383 C-100.75826172 41.75235352 -100.53654297 41.1890332 -100.30810547 40.60864258 C-90.5361727 23.73768806 -59.67345213 10.680871 -41.95947266 5.75366211 C-36.99709379 4.45937423 -32.00979004 3.31471643 -26.97998047 2.31567383 C-25.69679932 2.04533325 -25.69679932 2.04533325 -24.38769531 1.76953125 C-16.26104522 0.21184229 -8.24291901 -0.0239878 0 0 Z M-29.97998047 84.31567383 C-39.68418861 93.43293389 -45.62388248 107.09480559 -46.21826172 120.38989258 C-46.6654996 134.24464992 -46.6654996 134.24464992 -40.33154297 146.17504883 C-35.16089028 150.91669539 -29.99486289 152.86310077 -22.97998047 153.31567383 C-13.41647883 152.77940271 -5.41850203 149.16454927 1.09033203 142.05395508 C10.81795716 128.97851091 15.60027604 112.11599899 13.33251953 95.94067383 C11.81118451 88.21309793 8.22197226 83.87221052 2.02001953 79.31567383 C-8.98372915 73.67272579 -20.93982065 76.61099216 -29.97998047 84.31567383 Z " fill="#F36633" transform="translate(272.97998046875,66.684326171875)"/>
<path d="M0 0 C1.09208015 -0.00855011 1.09208015 -0.00855011 2.20622253 -0.01727295 C3.74676075 -0.0266842 5.28731875 -0.03324145 6.82788086 -0.03710938 C9.12327119 -0.04668847 11.41771476 -0.0776935 13.71289062 -0.109375 C39.51172971 -0.29437014 64.99125081 6.47507322 83.96948242 24.68969727 C99.16392403 39.8313554 107.8415342 58.31232397 108.04432678 79.84802246 C108.04080296 81.63236337 108.02839704 83.41670778 108.00732422 85.20092773 C107.98065725 87.87174551 108.00714292 90.53829782 108.0390625 93.20898438 C107.98928543 106.76328031 105.63059665 116.4475878 102.35546875 130.203125 C55.16546875 130.203125 7.97546875 130.203125 -40.64453125 130.203125 C-40.78053486 143.77721105 -40.78053486 143.77721105 -34.64453125 154.203125 C-29.99835908 157.92006273 -24.70919917 157.76382895 -18.96875 157.61328125 C-13.85500261 156.98232534 -9.73123517 155.33879159 -5.64453125 152.203125 C-4.79021065 151.01737725 -3.93803157 149.83008517 -3.08737183 148.64170837 C-0.63376384 145.7638173 0.90027615 144.70033186 4.68356323 144.36134338 C6.37476973 144.34119227 8.06671019 144.35935855 9.75732422 144.40844727 C10.68478958 144.40742508 11.61225494 144.40640289 12.56782532 144.40534973 C15.62061907 144.41021044 18.67038789 144.46457958 21.72265625 144.51953125 C23.84398769 144.53259284 25.9653403 144.54255436 28.08670044 144.54954529 C33.66034617 144.57622635 39.23270762 144.64495064 44.80584717 144.72247314 C50.49669013 144.79418046 56.18774137 144.82607288 61.87890625 144.86132812 C73.03832357 144.93632032 84.19678922 145.05573612 95.35546875 145.203125 C91.42107304 167.28536401 71.5244143 188.23830542 54.35546875 201.203125 C53.57945312 201.79480469 52.8034375 202.38648438 52.00390625 202.99609375 C41.96124885 210.33495878 31.02056698 216.39143736 19.48046875 221.015625 C18.83529297 221.28117188 18.19011719 221.54671875 17.52539062 221.8203125 C2.57123177 227.52669335 -12.28197284 228.85688901 -28.14916992 228.72460938 C-31.2076722 228.7031205 -34.2638329 228.72455588 -37.32226562 228.75 C-63.88180922 228.78602792 -87.48094521 221.30973308 -106.64453125 202.203125 C-123.89276733 182.88719446 -129.6089153 158.36588452 -128.45703125 133.078125 C-127.19556695 112.36376344 -122.34460832 91.63999204 -112.64453125 73.203125 C-112.31050293 72.56391113 -111.97647461 71.92469727 -111.63232422 71.26611328 C-107.04723655 62.56826592 -102.20274742 54.58405646 -95.64453125 47.203125 C-95.19754883 46.69201172 -94.75056641 46.18089844 -94.29003906 45.65429688 C-92.83504956 43.99453107 -91.36793567 42.34655646 -89.89453125 40.703125 C-89.43449707 40.18588867 -88.97446289 39.66865234 -88.50048828 39.13574219 C-86.09104738 36.50422895 -83.99062793 34.51654613 -80.64453125 33.203125 C-80.64453125 32.543125 -80.64453125 31.883125 -80.64453125 31.203125 C-78.68014441 29.5794365 -76.72666626 28.10105365 -74.64453125 26.640625 C-74.01659668 26.19879883 -73.38866211 25.75697266 -72.74169922 25.30175781 C-51.61676361 10.70445336 -26.01701839 0.16229509 0 0 Z M-23.515625 76.66796875 C-28.31215503 81.05189405 -31.25749349 86.18602982 -33.64453125 92.203125 C-33.64453125 92.863125 -33.64453125 93.523125 -33.64453125 94.203125 C-16.48453125 94.203125 0.67546875 94.203125 18.35546875 94.203125 C18.9921182 83.23074438 18.9921182 83.23074438 14.35546875 75.203125 C3.82371894 65.69886298 -13.05419286 68.47791227 -23.515625 76.66796875 Z " fill="#F36633" transform="translate(1683.64453125,66.796875)"/>
<path d="M0 0 C62.04 0 124.08 0 188 0 C185.525 14.85 185.525 14.85 183 30 C182.3915625 33.72410156 181.783125 37.44820312 181.15625 41.28515625 C180.31640625 46.25585938 180.31640625 46.25585938 179.90673828 48.65112305 C179.6282358 50.3022449 179.35744945 51.95468164 179.09326172 53.6081543 C178.69557765 56.08739926 178.27243697 58.56110908 177.84375 61.03515625 C177.73212524 61.76831558 177.62050049 62.50147491 177.50549316 63.2568512 C176.11114927 70.96680284 170.69300885 74.40623934 164.8125 78.9375 C164.21083008 79.40567139 163.60916016 79.87384277 162.98925781 80.35620117 C161.68295376 81.37208644 160.37545555 82.38643765 159.06689453 83.39941406 C156.94669024 85.04128263 154.83031516 86.68797622 152.71484375 88.3359375 C147.36943998 92.49904292 142.01860443 96.65514606 136.66796875 100.81152344 C129.09926648 106.69157826 121.53130447 112.57207809 114 118.5 C108.71637186 122.65614651 103.42543149 126.80279915 98.125 130.9375 C97.4546875 131.46214844 96.784375 131.98679688 96.09375 132.52734375 C88.47497742 138.46256733 80.73098651 144.20176012 73 150 C118.54 150.495 118.54 150.495 165 151 C160.88272518 175.70364893 156.48007936 200.3595635 152 225 C88.31 225 24.62 225 -41 225 C-37.17541942 198.22793596 -37.17541942 198.22793596 -35.29077148 186.62231445 C-34.88823002 184.08016163 -34.50575646 181.53475074 -34.14331055 178.98657227 C-30.61440771 154.34129796 -30.61440771 154.34129796 -22.58203125 148.10546875 C-20.43578464 146.61113555 -18.26866674 145.31479751 -16 144 C-14.68888696 142.99358957 -13.39251893 141.96703985 -12.125 140.90625 C-10.578125 139.71515625 -10.578125 139.71515625 -9 138.5 C-4.40695748 134.93563441 0.084262 131.28165576 4.5 127.5 C9.53230257 123.19207889 14.6790795 119.06078402 19.90356445 114.98876953 C25.34236228 110.74737282 30.67960413 106.38893191 36 102 C47.17058054 92.78509973 58.56966626 83.89025957 70 75 C28.915 74.505 28.915 74.505 -13 74 C-8.88272518 49.29635107 -4.48007936 24.6404365 0 0 Z " fill="#F36733" transform="translate(1371,69)"/>
<path d="M0 0 C29.7 0 59.4 0 90 0 C88.69433584 9.79248117 87.29763593 19.46127481 85.53588867 29.16650391 C85.29311284 30.51800501 85.05063588 31.86955983 84.80842781 33.2211628 C84.15293705 36.87424814 83.49332453 40.52657818 82.83296609 44.17878628 C82.12402011 48.10411075 81.41908375 52.03015545 80.71366882 55.95611572 C79.3479069 63.55379166 77.97869544 71.1508417 76.60820192 78.74766541 C74.86598073 88.40570117 73.12752804 98.06441459 71.38916016 107.72314453 C70.75050677 111.27145719 70.11183112 114.81976583 69.47314453 118.36807251 C69.31479102 119.24784976 69.15643752 120.12762701 68.99328542 121.03406417 C68.02940843 126.38886053 67.06507436 131.74357435 66.10039353 137.09822595 C62.14994637 159.0262354 58.21454062 180.95685259 54.30119514 202.89151382 C53.55469055 207.07547565 52.80741552 211.2592996 52.05992126 215.44308472 C51.87987986 216.45084884 51.87987986 216.45084884 51.69620126 217.47897184 C51.10485041 220.78897632 50.51345801 224.09897338 49.92203045 227.40896416 C48.78867971 233.75347007 47.65695815 240.09825871 46.52865601 246.44366455 C45.48365373 252.32044533 44.43460611 258.19648917 43.38239479 264.07198334 C43.00273986 266.19643648 42.62464953 268.32116993 42.24826622 270.44620514 C41.73976342 273.31628759 41.22579868 276.1853395 40.71044922 279.05419922 C40.4925739 280.29581283 40.4925739 280.29581283 40.27029705 281.56250954 C40.13137948 282.32940794 39.99246191 283.09630634 39.84933472 283.88644409 C39.67435864 284.86842175 39.67435864 284.86842175 39.4958477 285.87023735 C38.85305706 288.6311486 37.89642684 291.31071949 37 294 C7.63 294 -21.74 294 -52 294 C-51.39068354 287.29751891 -50.76351022 280.88400461 -49.56256104 274.30990601 C-49.34840078 273.10512444 -49.34840078 273.10512444 -49.12991405 271.87600386 C-48.65647007 269.2190939 -48.17640033 266.56342741 -47.69628906 263.90771484 C-47.35230339 261.98522535 -47.00873285 260.06266155 -46.6655426 258.14002991 C-45.73299005 252.92238009 -44.79466807 247.70578255 -43.85534 242.48934889 C-42.85835093 236.94677273 -41.86682438 231.40321941 -40.87469482 225.85977173 C-38.98148145 215.28622655 -37.08355518 204.71353313 -35.18386912 194.14114916 C-32.86745969 181.24842936 -30.55664051 168.35470903 -28.24609375 155.4609375 C-27.42236673 150.86443301 -26.59859653 146.26793625 -25.77478027 141.67144775 C-25.57222862 140.54130005 -25.36967696 139.41115235 -25.16098738 138.24675775 C-23.74182511 130.32931573 -22.32121196 122.41213485 -20.90002441 114.49505615 C-17.22794744 94.03630304 -13.56317638 73.57634419 -9.93164062 53.11035156 C-9.61862254 51.34719696 -9.30559251 49.58404449 -8.9925499 47.82089424 C-7.70066233 40.54314774 -6.40983822 33.26522163 -5.12475109 25.9862709 C-4.62237075 23.14299838 -4.11825056 20.30003633 -3.61368465 17.45715094 C-3.2755102 15.54813185 -2.93972119 13.63869067 -2.60401154 11.7292366 C-2.40515099 10.61006222 -2.20629044 9.49088783 -2.00140381 8.33779907 C-1.83074276 7.37148874 -1.66008171 6.40517841 -1.48424911 5.40958595 C-1 3 -1 3 0 0 Z " fill="#F36633" transform="translate(52,0)"/>
</svg>
